<?xml version="1.0" encoding="utf-8"?>
<!-- Generator: Adobe Illustrator 26.3.1, SVG Export Plug-In . SVG Version: 6.00 Build 0)  -->
<svg version="1.1" id="Layer_1" xmlns="http://www.w3.org/2000/svg" xmlns:xlink="http://www.w3.org/1999/xlink" x="0px" y="0px"
	 viewBox="0 0 100 100" style="enable-background:new 0 0 100 100;" xml:space="preserve">
<path d="M50,18.4c7.9,0,14.3,6.4,14.3,14.3S57.9,46.9,50,46.9s-14.3-6.4-14.3-14.3S42.1,18.4,50,18.4 M21.4,28.6
	c2.3,0,4.4,0.6,6.2,1.7c-0.6,5.8,1.1,11.6,4.6,16.2c-2,3.9-6.1,6.6-10.9,6.6c-6.8,0-12.2-5.5-12.2-12.2S14.7,28.6,21.4,28.6
	 M78.6,28.6c6.8,0,12.2,5.5,12.2,12.2s-5.5,12.2-12.2,12.2c-4.7,0-8.8-2.7-10.9-6.6c3.5-4.5,5.2-10.3,4.6-16.2
	C74.2,29.2,76.3,28.6,78.6,28.6 M23.5,70.4c0-8.5,11.9-15.3,26.5-15.3S76.5,62,76.5,70.4v7.1H23.5V70.4 M1,77.6v-6.1
	C1,65.8,8.7,61,19.2,59.6c-2.4,2.8-3.9,6.6-3.9,10.8v7.1H1 M99,77.6H84.7v-7.1c0-4.2-1.5-8-3.9-10.8C91.3,61,99,65.8,99,71.4V77.6z"
	/>
</svg>
