<?xml version="1.0" encoding="utf-8"?>
<!-- Generator: Adobe Illustrator 26.3.1, SVG Export Plug-In . SVG Version: 6.00 Build 0)  -->
<svg version="1.1" id="Layer_1" xmlns="http://www.w3.org/2000/svg" xmlns:xlink="http://www.w3.org/1999/xlink" x="0px" y="0px"
	 viewBox="0 0 100 100" style="enable-background:new 0 0 100 100;" xml:space="preserve">
<path d="M90.8,13.2H9.2c-4.5,0.2-8,3.7-8.2,8.2v57.2c0.2,4.5,3.7,8,8.2,8.2h81.7c4.5-0.2,8-3.7,8.2-8.2V21.4
	C98.8,17,95.3,13.4,90.8,13.2 M90.8,78.6H9.2V21.4h81.7V78.6 M58.2,70.4v-5.1c0-6.8-13.6-10.2-20.4-10.2s-20.4,3.4-20.4,10.2v5.1
	H58.2 M37.8,29.6c-5.6,0-10.2,4.6-10.2,10.2S32.1,50,37.8,50S48,45.4,48,39.8S43.4,29.6,37.8,29.6 M58.2,29.6v4.1h24.5v-4.1H58.2
	 M58.2,37.8v4.1h24.5v-4.1H58.2 M58.2,45.9V50h16.3v-4.1H58.2"/>
</svg>
