<?xml version="1.0" encoding="utf-8"?>
<!-- Generator: Adobe Illustrator 26.3.1, SVG Export Plug-In . SVG Version: 6.00 Build 0)  -->
<svg version="1.1" id="Layer_1" xmlns="http://www.w3.org/2000/svg" xmlns:xlink="http://www.w3.org/1999/xlink" x="0px" y="0px"
	 viewBox="0 0 100 100" style="enable-background:new 0 0 100 100;" xml:space="preserve">
<path d="M50,67.2c-9.5,0-17.2-7.7-17.2-17.2S40.5,32.8,50,32.8S67.2,40.5,67.2,50S59.5,67.2,50,67.2 M86.4,54.8
	c0.2-1.6,0.3-3.1,0.3-4.8s-0.1-3.2-0.3-4.9l10.3-8c0.9-0.7,1.2-2.1,0.6-3.1l-9.8-17c-0.6-1.1-1.9-1.5-3-1.1l-12.2,4.9
	c-2.5-1.9-5.2-3.6-8.3-4.8l-1.8-13C62.1,1.9,61,1,59.8,1H40.2C39,1,38,1.9,37.8,3.1l-1.8,13c-3.1,1.2-5.7,2.9-8.3,4.8l-12.2-4.9
	c-1.1-0.4-2.4,0-3,1.1L2.7,34c-0.6,1.1-0.3,2.4,0.6,3.1l10.3,8c-0.2,1.7-0.3,3.3-0.3,4.9s0.1,3.2,0.3,4.8L3.3,62.9
	C2.3,63.6,2,64.9,2.7,66l9.8,17c0.6,1.1,1.9,1.5,3,1.1l12.2-4.9c2.5,2,5.2,3.6,8.3,4.9l1.8,13C38,98.1,39,99,40.2,99h19.6
	c1.2,0,2.3-0.9,2.5-2.1l1.8-13c3.1-1.3,5.7-2.9,8.3-4.9l12.2,4.9c1.1,0.4,2.4,0,3-1.1l9.8-17c0.6-1.1,0.3-2.4-0.6-3.1L86.4,54.8z"/>
</svg>
