<?xml version="1.0" encoding="utf-8"?>
<!-- Generator: Adobe Illustrator 26.3.1, SVG Export Plug-In . SVG Version: 6.00 Build 0)  -->
<svg version="1.1" id="Layer_1" xmlns="http://www.w3.org/2000/svg" xmlns:xlink="http://www.w3.org/1999/xlink" x="0px" y="0px"
	 viewBox="0 0 100 100" style="enable-background:new 0 0 100 100;" xml:space="preserve">
<path d="M45.1,79.4h9.8v-9.8h-9.8V79.4 M50,1C22.9,1,1,22.9,1,50s21.9,49,49,49s49-21.9,49-49S77.1,1,50,1 M50,89.2
	c-21.6,0-39.2-17.6-39.2-39.2S28.4,10.8,50,10.8S89.2,28.4,89.2,50S71.6,89.2,50,89.2 M50,20.6c-10.8,0-19.6,8.8-19.6,19.6h9.8
	c0-5.4,4.4-9.8,9.8-9.8s9.8,4.4,9.8,9.8c0,9.8-14.7,8.6-14.7,24.5h9.8c0-11,14.7-12.2,14.7-24.5C69.6,29.4,60.8,20.6,50,20.6z"/>
</svg>
