<?xml version="1.0" encoding="utf-8"?>
<!-- Generator: Adobe Illustrator 26.3.1, SVG Export Plug-In . SVG Version: 6.00 Build 0)  -->
<svg version="1.1" xmlns="http://www.w3.org/2000/svg" xmlns:xlink="http://www.w3.org/1999/xlink" x="0px" y="0px"
	 viewBox="0 0 500 200" style="enable-background:new 0 0 500 200;" xml:space="preserve">
<style type="text/css">
	.st0{fill:#020203;}
</style>
<g id="Layer_1">
</g>
<g id="Commun">
	<g>
		<path class="st0" d="M49.91,20.51c7.89,0,14.29,6.4,14.29,14.29s-6.4,14.29-14.29,14.29s-14.29-6.4-14.29-14.29
			S42.02,20.51,49.91,20.51 M21.33,30.72c2.29,0,4.41,0.61,6.25,1.72c-0.61,5.84,1.1,11.64,4.61,16.17
			c-2.04,3.92-6.12,6.61-10.86,6.61c-6.77,0-12.25-5.48-12.25-12.25S14.56,30.72,21.33,30.72 M78.5,30.72
			c6.77,0,12.25,5.48,12.25,12.25S85.26,55.22,78.5,55.22c-4.74,0-8.82-2.69-10.86-6.61c3.51-4.53,5.23-10.33,4.61-16.17
			C74.09,31.33,76.21,30.72,78.5,30.72 M23.37,72.57c0-8.45,11.88-15.31,26.54-15.31s26.54,6.86,26.54,15.31v7.15H23.37V72.57
			 M0.91,79.72v-6.12c0-5.68,7.72-10.45,18.17-11.84c-2.41,2.78-3.88,6.61-3.88,10.82v7.15H0.91 M98.91,79.72H84.62v-7.15
			c0-4.21-1.47-8.04-3.88-10.82c10.45,1.39,18.17,6.17,18.17,11.84V79.72z"/>
	</g>
</g>
<g id="Dashboard">
	<g>
		<path class="st0" d="M155.82,1.09v32.67h43.56V1.09 M155.82,99.09h43.56V44.65h-43.56 M101.38,99.09h43.56V66.42h-43.56
			 M101.38,55.53h43.56V1.09h-43.56V55.53z"/>
	</g>
</g>
</svg>
