<?xml version="1.0" encoding="utf-8"?>
<!-- Generator: Adobe Illustrator 26.3.1, SVG Export Plug-In . SVG Version: 6.00 Build 0)  -->
<svg version="1.1" id="Layer_1" xmlns="http://www.w3.org/2000/svg" xmlns:xlink="http://www.w3.org/1999/xlink" x="0px" y="0px"
	 viewBox="0 0 100 100" style="enable-background:new 0 0 100 100;" xml:space="preserve">
<path d="M94.5,32.2v40.1c0,4.9-4,8.9-8.9,8.9H23.3L5.5,99V18.8c0-4.9,4-8.9,8.9-8.9h45c-0.4,1.3-0.4,3.1-0.4,4.5s0,3.1,0.4,4.5h-45
	v53.5h71.3V36.2C88.8,35.7,91.9,34,94.5,32.2 M67.8,14.4c0,7.6,5.8,13.4,13.4,13.4s13.4-5.8,13.4-13.4S88.8,1,81.2,1
	S67.8,6.8,67.8,14.4z"/>
</svg>
