<?xml version="1.0" encoding="utf-8"?>
<!-- Generator: Adobe Illustrator 26.3.1, SVG Export Plug-In . SVG Version: 6.00 Build 0)  -->
<svg version="1.1" id="Layer_1" xmlns="http://www.w3.org/2000/svg" xmlns:xlink="http://www.w3.org/1999/xlink" x="0px" y="0px"
	 viewBox="0 0 100 100" style="enable-background:new 0 0 100 100;" xml:space="preserve">
<path d="M82.7,70.8V46.5c-2.3,0.5-4.7,0.9-7,0.9h-2.3v28H26.7V42.8c0-13.1,10.3-23.3,23.3-23.3c0.5-6.1,3.3-11.2,7-15.4
	c-1.4-1.9-4.2-3.3-7-3.3c-5.1,0-9.3,4.2-9.3,9.3v1.4c-14,4.2-23.3,16.8-23.3,31.3v28L8,80.1v4.7h84v-4.7L82.7,70.8 M40.7,89.5
	c0,5.1,4.2,9.3,9.3,9.3s9.3-4.2,9.3-9.3H40.7 M92,21.8c0,8.9-7.5,16.3-16.3,16.3s-16.3-7.5-16.3-16.3S66.8,5.5,75.7,5.5
	S92,12.9,92,21.8"/>
</svg>
