<?xml version="1.0" encoding="utf-8"?>
<!-- Generator: Adobe Illustrator 26.3.1, SVG Export Plug-In . SVG Version: 6.00 Build 0)  -->
<svg version="1.1" id="Layer_1" xmlns="http://www.w3.org/2000/svg" xmlns:xlink="http://www.w3.org/1999/xlink" x="0px" y="0px"
	 viewBox="0 0 100 100" style="enable-background:new 0 0 100 100;" xml:space="preserve">
<path d="M37.4,1c20.1,0,36.4,16.3,36.4,36.4c0,9-3.3,17.3-8.7,23.7l1.5,1.5H71l28,28L90.6,99l-28-28v-4.4l-1.5-1.5
	c-6.4,5.4-14.7,8.7-23.7,8.7C17.3,73.8,1,57.5,1,37.4S17.3,1,37.4,1 M37.4,12.2c-14,0-25.2,11.2-25.2,25.2s11.2,25.2,25.2,25.2
	s25.2-11.2,25.2-25.2S51.4,12.2,37.4,12.2z"/>
</svg>
