<?xml version="1.0" encoding="utf-8"?>
<!-- Generator: Adobe Illustrator 26.3.1, SVG Export Plug-In . SVG Version: 6.00 Build 0)  -->
<svg version="1.1" id="Layer_1" xmlns="http://www.w3.org/2000/svg" xmlns:xlink="http://www.w3.org/1999/xlink" x="0px" y="0px"
	 viewBox="0 0 100 100" style="enable-background:new 0 0 100 100;" xml:space="preserve">
<style type="text/css">
	.st0{fill:#020203;}
</style>
<path class="st0" d="M79.1,70.4c-3.7,0-7.1,1.5-9.6,3.8L34.4,53.7c0.2-1.1,0.4-2.3,0.4-3.4c0-1.2-0.2-2.3-0.4-3.4l34.7-20.2
	c2.7,2.5,6.2,4,10,4c8.2,0,14.8-6.6,14.8-14.8S87.3,1,79.1,1S64.4,7.6,64.4,15.8c0,1.2,0.2,2.3,0.4,3.4L30.1,39.5
	c-2.7-2.5-6.2-4-10-4c-8.2,0-14.8,6.6-14.8,14.8S11.9,65,20.1,65c3.9,0,7.4-1.5,10-4l35,20.4c-0.2,1-0.4,2.1-0.4,3.2
	c0,7.9,6.4,14.3,14.4,14.3s14.4-6.4,14.4-14.3S87.1,70.4,79.1,70.4 M79.1,10.9c2.7,0,4.9,2.2,4.9,4.9s-2.2,4.9-4.9,4.9
	c-2.7,0-4.9-2.2-4.9-4.9S76.4,10.9,79.1,10.9 M20.1,55.2c-2.7,0-4.9-2.2-4.9-4.9s2.2-4.9,4.9-4.9s4.9,2.2,4.9,4.9
	S22.8,55.2,20.1,55.2 M79.1,89.6c-2.7,0-4.9-2.2-4.9-4.9s2.2-4.9,4.9-4.9c2.7,0,4.9,2.2,4.9,4.9S81.9,89.6,79.1,89.6z"/>
</svg>
