<?xml version="1.0" encoding="utf-8"?>
<!-- Generator: Adobe Illustrator 26.3.1, SVG Export Plug-In . SVG Version: 6.00 Build 0)  -->
<svg version="1.1" id="Layer_1" xmlns="http://www.w3.org/2000/svg" xmlns:xlink="http://www.w3.org/1999/xlink" x="0px" y="0px"
	 viewBox="0 0 100 100" style="enable-background:new 0 0 100 100;" xml:space="preserve">
<style type="text/css">
	.st0{fill:#020203;}
</style>
<path class="st0" d="M19.2,94.1l7.8-34.3L0.6,36.3l35.3-2.9L49.6,1l13.7,32.3l35.3,2.9L82.9,50H79c-3.4,0-6.9,0.5-10.3,2l10.8-9.3
	l-21.6-2l-8.3-19.6l-8.3,19.6l-21.6,2l16.2,14.2L31,78l18.6-11.3l2.5,1.5c-1,2.5-2,5.4-2,7.8L19.2,94.1 M74.1,59.8v14.7H59.4v9.8
	h14.7V99h9.8V84.3h14.7v-9.8H83.9V59.8H74.1z"/>
</svg>
