<?xml version="1.0" encoding="utf-8"?>
<!-- Generator: Adobe Illustrator 26.3.1, SVG Export Plug-In . SVG Version: 6.00 Build 0)  -->
<svg version="1.1" id="Layer_1" xmlns="http://www.w3.org/2000/svg" xmlns:xlink="http://www.w3.org/1999/xlink" x="0px" y="0px"
	 viewBox="0 0 100 100" style="enable-background:new 0 0 100 100;" xml:space="preserve">
<style type="text/css">
	.st0{fill:#020203;}
</style>
<path class="st0" d="M49.6,10c-22.3,0-41.3,13.9-49,33.4c7.7,19.6,26.7,33.4,49,33.4c1.6,0,3.2,0,4.8-0.2c-0.2-1.4-0.4-2.8-0.4-4.2
	c0-1.6,0.2-3.2,0.4-4.8c-1.6,0.2-3.3,0.4-4.9,0.4c-16.7,0-31.9-9.5-39.3-24.5c7.3-15,22.5-24.5,39.3-24.5s31.9,9.5,39.3,24.5
	c-0.5,1.1-1.2,2-1.7,3c2.9,0.7,5.7,1.9,8.3,3.7c1.2-2.2,2.3-4.5,3.2-6.7C90.9,23.8,71.9,10,49.6,10 M49.6,30
	c-7.4,0-13.4,6-13.4,13.4s6,13.4,13.4,13.4S63,50.7,63,43.4S57,30,49.6,30 M76.3,54.5v13.4H63v8.9h13.4v13.4h8.9V76.8h13.4v-8.9
	H85.3V54.5H76.3z"/>
</svg>
